<?xml version="1.0" standalone="no"?>
<!DOCTYPE svg PUBLIC "-//W3C//DTD SVG 1.1//EN" "http://www.w3.org/Graphics/SVG/1.1/DTD/svg11.dtd">
<svg xmlns="http://www.w3.org/2000/svg">
<metadata>Copyright (C) 2017 by original authors @ fontello.com</metadata>
<defs>
<font id="fontello" horiz-adv-x="1000" >
<font-face font-family="fontello" font-weight="400" font-stretch="normal" units-per-em="1000" ascent="850" descent="-150" />
<missing-glyph horiz-adv-x="1000" />
<glyph glyph-name="down-open" unicode="&#xe800;" d="M939 399l-414-413q-10-11-25-11t-25 11l-414 413q-11 11-11 26t11 25l93 92q10 11 25 11t25-11l296-296 296 296q11 11 25 11t26-11l92-92q11-11 11-25t-11-26z" horiz-adv-x="1000" />

<glyph glyph-name="left-open" unicode="&#xe801;" d="M654 682l-297-296 297-297q10-10 10-25t-10-25l-93-93q-11-10-25-10t-25 10l-414 415q-11 10-11 25t11 25l414 414q10 11 25 11t25-11l93-93q10-10 10-25t-10-25z" horiz-adv-x="714.3" />

<glyph glyph-name="right-open" unicode="&#xe802;" d="M618 361l-414-415q-11-10-25-10t-25 10l-93 93q-11 11-11 25t11 25l296 297-296 296q-11 11-11 25t11 25l93 93q10 11 25 11t25-11l414-414q10-11 10-25t-10-25z" horiz-adv-x="714.3" />

<glyph glyph-name="up-open" unicode="&#xe803;" d="M939 107l-92-92q-11-10-26-10t-25 10l-296 297-296-297q-11-10-25-10t-25 10l-93 92q-11 11-11 26t11 25l414 414q11 10 25 10t25-10l414-414q11-11 11-25t-11-26z" horiz-adv-x="1000" />

<glyph glyph-name="geolocate" unicode="&#xe804;" d="M500 531c-99 0-181-82-181-181s82-181 181-181 181 82 181 181-82 181-181 181z m404-136c-23 190-172 339-359 359v96h-90v-96c-189-20-339-169-359-359h-96v-90h96c23-189 173-339 359-359v-96h90v96c190 23 339 173 359 359h96v90h-96z m-404-361c-178 0-316 141-316 316 0 178 141 316 316 316s316-141 316-316c0-178-138-316-316-316z" horiz-adv-x="1000" />

<glyph glyph-name="camera" unicode="&#xe805;" d="M500 450q64 0 107-44t43-106-44-106-106-44-106 44-44 106 44 106 106 44z m400 150q42 0 71-29t29-71l0-450q0-40-29-70t-71-30l-800 0q-40 0-70 30t-30 70l0 450q0 42 30 71t70 29l120 0q28 0 40 30l30 92q10 28 40 28l340 0q30 0 40-28l30-92q12-30 40-30l120 0z m-400-550q104 0 177 73t73 177-73 177-177 73-177-73-73-177 73-177 177-73z m366 380q14 0 24 11t10 25-10 24-24 10q-36 0-36-34 0-16 11-26t25-10z" horiz-adv-x="1000" />

<glyph glyph-name="keyboard" unicode="&#xe806;" d="M930 650q28 0 49-21t21-49l0-460q0-30-21-50t-49-20l-860 0q-28 0-49 20t-21 50l0 460q0 28 21 49t49 21l860 0z m-380-100l0-100 100 0 0 100-100 0z m150-150l-100 0 0-100 100 0 0 100z m-300 150l0-100 100 0 0 100-100 0z m150-150l-100 0 0-100 100 0 0 100z m-300 150l0-100 100 0 0 100-100 0z m150-150l-100 0 0-100 100 0 0 100z m-300 150l0-100 100 0 0 100-100 0z m150-150l-100 0 0-100 100 0 0 100z m-50-250l0 100-100 0 0-100 100 0z m550 0l0 100-500 0 0-100 500 0z m150 0l0 100-100 0 0-100 100 0z m-150 150l100 0 0 100-100 0 0-100z m150 150l0 100-200 0 0-100 200 0z" horiz-adv-x="1000" />

<glyph glyph-name="trash-empty" unicode="&#xe807;" d="M286 439v-321q0-8-5-13t-13-5h-36q-8 0-13 5t-5 13v321q0 8 5 13t13 5h36q8 0 13-5t5-13z m143 0v-321q0-8-5-13t-13-5h-36q-8 0-13 5t-5 13v321q0 8 5 13t13 5h36q8 0 13-5t5-13z m142 0v-321q0-8-5-13t-12-5h-36q-8 0-13 5t-5 13v321q0 8 5 13t13 5h36q7 0 12-5t5-13z m72-404v529h-500v-529q0-12 4-22t8-15 6-5h464q2 0 6 5t8 15 4 22z m-375 601h250l-27 65q-4 5-9 6h-177q-6-1-10-6z m518-18v-36q0-8-5-13t-13-5h-54v-529q0-46-26-80t-63-34h-464q-37 0-63 33t-27 79v531h-53q-8 0-13 5t-5 13v36q0 8 5 13t13 5h172l39 93q9 21 31 35t44 15h178q23 0 44-15t30-35l39-93h173q8 0 13-5t5-13z" horiz-adv-x="785.7" />

<glyph glyph-name="layers" unicode="&#xe808;" d="M18 183l446-112 447 112 0-112-447-112-446 112 0 112z m0 223l446-112 447 112 0-112-447-111-446 111 0 112z m0 223l446 112 447-112 0-111-447-112-446 112 0 111z" horiz-adv-x="928" />

<glyph glyph-name="menu" unicode="&#xe80a;" d="M650 400q22 0 36-15t14-35-15-35-35-15l-600 0q-20 0-35 15t-15 35 14 35 36 15l600 0z m-600 100q-20 0-35 15t-15 35 14 35 36 15l600 0q22 0 36-15t14-35-15-35-35-15l-600 0z m600-300q22 0 36-15t14-35-15-35-35-15l-600 0q-20 0-35 15t-15 35 14 35 36 15l600 0z" horiz-adv-x="700" />

<glyph glyph-name="query" unicode="&#xe80b;" d="M686 208q14 20 14-2l0-100q0-74-104-135t-246-61q-140 0-245 61t-105 135l0 100q0 8 4 10t10-8q32-52 125-86t211-34 211 34 125 86z m2 254q8 16 12 0l0-116q0-68-102-114t-248-46q-144 0-247 46t-103 114l0 116q0 20 14 0 30-46 124-75t212-29 212 29 126 75z m-338 328q144 0 247-39t103-93l0-64q0-58-103-99t-247-41-247 41-103 99l0 64q0 54 103 93t247 39z" horiz-adv-x="700" />

<glyph glyph-name="info" unicode="&#xe80c;" d="M74 351l-56 0 0 111 335 0 0-390q0-24 17-40t39-16l55 0 0-113-446 0 0 113 56 0q23 0 40 16t16 40l0 223q0 24-16 40t-40 16z m56 334q0 112 112 112t111-112-111-111-112 111z" horiz-adv-x="482" />

<glyph glyph-name="block" unicode="&#xe80d;" d="M480 830q200 0 340-140t140-340q0-198-140-339t-340-141q-198 0-339 141t-141 339q0 200 141 340t339 140z m258-220z m-622-260q0-132 82-230l514 514q-100 82-232 82-152 0-258-107t-106-259z m106-258z m258-106q152 0 259 107t107 257q0 130-82 232l-514-514q98-82 230-82z" horiz-adv-x="960" />

<glyph glyph-name="camera-1" unicode="&#xe80e;" d="M0 6l0 469q0 35 23 61t55 31l135 23 43 108q12 27 35 43t53 15l312 0q30 0 53-15t35-43l43-108 135-23q33-6 56-31t22-61l0-469q0-39-27-66t-67-28l-812 0q-39 0-67 28t-27 66z m63 0q0-13 8-22t23-9l812 0q14 0 23 9t8 22l0 469q0 27-25 31l-170 28-56 140q-8 20-30 20l-312 0q-22 0-30-20l-56-140-170-28q-25-4-25-31l0-469z m187 282q0 103 73 176t177 74 177-74 73-176-73-177-177-73-177 73-73 177z m63-15q5-77 65-128t137-45 128 65 45 137-66 128-137 45-128-65-44-137z m62 15q0 50 36 87t89 38q16 0 16-16t-16-16q-39 0-66-27t-28-66q0-16-15-16t-16 16z" horiz-adv-x="1000" />

<glyph glyph-name="attention" unicode="&#xe80f;" d="M957-24q10-16 0-34-10-16-30-16l-892 0q-18 0-28 16-13 18-2 34l446 782q8 18 30 18t30-18z m-420 50l0 100-110 0 0-100 110 0z m0 174l0 300-110 0 0-300 110 0z" horiz-adv-x="962" />

<glyph glyph-name="hazard" unicode="&#xe810;" d="M869 138c-4 0-7 4-7 8v276c0 5 3 8 7 8s8-3 8-8v-276c0-4-4-8-8-8z m-243 21v68c0 69-56 126-126 126-34 0-65-13-89-37-24-24-37-56-37-89v-68c0-4 3-7 8-7s7 3 7 7v68c0 30 12 57 33 78 20 21 48 33 78 33 61 0 111-50 111-111v-68c0-4 3-7 8-7s7 3 7 7z m-487-11v274c0 5-4 8-8 8s-7-3-7-8v-274c0-5 3-8 7-8s8 3 8 8z m860-14c3 3 2 8-1 11-3 3-8 2-10-1-10-11-23-17-38-17-18 0-34 10-43 26-1 2-4 3-7 3 0 0 0 0 0 0-2 0-5-1-6-3-9-16-26-26-44-26-18 0-34 10-43 26-1 2-4 3-7 3 0 0 0 0 0 0-2 0-5-1-6-3-9-16-26-26-44-26-18 0-34 10-43 26-1 2-4 3-7 3 0 0 0 0 0 0-2 0-5-1-6-3-9-16-26-26-44-26-18 0-34 10-43 26-1 2-4 3-7 3 0 0 0 0 0 0-2 0-5-1-6-3-9-16-26-26-44-26-18 0-34 10-43 26-1 2-4 3-7 3 0 0 0 0 0 0-2 0-5-1-6-3-9-16-26-26-44-26-18 0-34 10-43 26-1 2-4 3-7 3 0 0 0 0 0 0-2 0-5-1-6-3-9-16-26-26-44-26-18 0-34 10-43 26-1 2-4 3-7 3 0 0 0 0 0 0-2 0-5-1-6-3-9-16-26-26-44-26-18 0-34 10-43 26-1 2-4 3-7 3 0 0 0 0 0 0-2 0-5-1-6-3-9-16-26-26-44-26-18 0-34 10-43 26-1 2-4 3-7 3 0 0 0 0 0 0-2 0-5-1-6-3-9-16-26-26-44-26-14 0-27 6-37 17-3 3-7 4-10 1-4-3-4-8-1-11 12-14 30-22 49-22 19 0 38 9 50 24 12-15 30-24 50-24 19 0 38 9 50 24 12-15 30-24 50-24 19 0 38 9 50 24 12-15 30-24 50-24 19 0 38 9 50 24 12-15 30-24 50-24 19 0 38 9 50 24 12-15 30-24 50-24 19 0 38 9 50 24 12-15 30-24 50-24 19 0 38 9 50 24 12-15 30-24 50-24 19 0 38 9 50 24 12-15 30-24 50-24 19 0 38 9 50 24 12-15 30-24 50-24 18 0 36 8 48 22z m0 216c2 3 2 8-2 11l-173 137v229c0 11-10 21-21 21h-105c-1 0-1 0-1 0-11-1-18-8-20-20 0 0 0 0 0-1v-113l-172 135c-3 3-7 3-9 0l-493-388c-4-3-4-8-1-11 2-3 7-4 10-1l488 385 488-385c1-1 3-2 5-2 2 0 4 1 6 3z m-307 376c1 6 4 7 6 7h105c3 0 6-3 6-6v-218l-117 93v124z" horiz-adv-x="1000" />

<glyph glyph-name="elevation" unicode="&#xe811;" d="M856-51h-712c-11 0-20 9-20 21v452c0 5 3 8 7 8s8-3 8-8v-452c0-3 2-6 5-6h712c3 0 6 3 6 6v452c0 5 3 8 7 8s8-3 8-8v-452c0-12-10-21-21-21z m137 398c-2 0-4 1-5 2l-488 385-488-385c-3-3-8-2-10 1-3 3-2 8 1 11l493 388c2 3 6 3 9 0l172-135v113c0 1 0 1 0 1 2 12 9 19 20 20 0 0 0 0 1 0h105c11 0 21-10 21-21v-229l173-137c4-3 4-7 2-11-2-2-4-3-6-3z m-301 255l117-93v218c0 3-3 6-6 6h-105c-2 0-5-1-6-7v-124z m-170-541h-39v8h-7v42c-27 2-55 10-72 22l-4 4 17 47 8-5c18-13 42-20 66-20 30 0 51 16 51 40 0 22-15 37-51 52-44 17-85 40-85 91 0 43 28 75 73 85v51h46v-48c22-2 42-8 59-18l6-3-18-47-7 5c-9 5-28 15-58 15-21 0-44-9-44-34 0-20 12-31 56-49 56-23 80-52 80-96 0-44-31-79-77-90v-52z m-31 15h16v50l6 1c43 7 71 37 71 76 0 38-21 62-71 82-44 18-66 32-66 63 0 25 19 49 60 49 27 0 46-7 57-13l7 18c-15 8-33 12-54 13l-7 0v48h-16v-49l-6-1c-41-6-67-34-67-71 0-34 21-56 76-77 29-12 60-30 60-66 0-32-27-55-66-55-23 0-47 6-67 17l-6-18c16-10 42-17 65-17l8-1v-49z" horiz-adv-x="1000" />

<glyph glyph-name="storage" unicode="&#xe812;" d="M846 461h-262c-68 0-124 56-124 124 0 61 45 113 104 123 7 27 20 51 39 70 28 28 65 43 104 43 39 0 76-15 103-43 28-27 42-63 43-102 56-4 100-51 100-107 0-60-48-108-107-108z m-139 345c-35 0-68-14-93-39-18-18-31-41-36-67l-1-6-6 0c-55-7-96-54-96-109 0-60 49-109 109-109h261c51 0 93 42 93 93s-42 92-93 92h-8l0 8c2 37-12 72-37 98-25 25-59 39-93 39z m-164-507l72 125c2 3 1 8-2 10-4 2-9 1-11-3l-72-125c-2-3-1-8 3-10 1-1 2-1 4-1 2 0 5 1 6 4z m113 0l72 125c2 3 1 8-3 10-3 2-8 1-10-3l-72-125c-2-3-1-8 2-10 2-1 3-1 4-1 3 0 5 1 7 4z m112 0l72 125c2 3 1 8-2 10-4 2-9 1-11-3l-72-125c-2-3-1-8 3-10 1-1 2-1 4-1 2 0 5 1 6 4z m217-41c0 4 3 8 7 8 0 0 0 0 0 0 5 0 8-4 8-8l0-401c0-2-1-4-2-5-2-1-3-2-5-2h-985c-5 0-8 3-8 7v401c0 4 3 8 8 8s7-4 7-8v-116c9-9 22-15 36-15 18 0 34 10 43 26 1 2 4 3 7 3 0 0 0 0 0 0 2 0 5-1 6-3 9-16 26-26 44-26 18 0 34 10 43 25 1 3 4 4 7 4 0 0 0 0 0 0 2 0 5-1 6-4 9-15 26-25 44-25 18 0 34 10 43 25 1 2 4 4 7 4 0 0 0 0 0 0 2 0 5-2 6-4 9-16 26-25 44-25 18 0 34 9 43 25 1 2 4 4 7 4 0 0 0 0 0 0 2 0 5-2 6-4 9-16 26-26 44-26 18 0 34 10 43 26 1 2 4 3 7 3 2 0 5-1 6-3 9-16 26-26 44-26 18 0 34 10 43 25 1 3 4 4 7 4 0 0 0 0 0 0 2 0 5-1 6-4 9-15 26-25 44-25 18 0 34 10 43 25 1 2 4 4 7 4 0 0 0 0 0 0 2 0 5-2 6-4 9-16 26-25 44-25 18 0 34 9 43 25 1 2 4 4 7 4 0 0 0 0 0 0 2 0 5-2 6-4 9-16 26-26 44-26 18 0 34 10 43 26 1 2 4 3 7 3 0 0 0 0 0 0 2 0 5-1 6-3 9-16 26-26 44-26 13 0 26 5 35 15-1 2-1 118-1 118z m-970-393h970l0 258c-11-7-23-11-35-11-20 0-38 9-50 24-13-15-31-24-50-24-20 0-38 9-50 24-13-15-31-24-50-24-20 0-38 9-50 24-13-15-31-24-50-24-20 0-38 9-50 24-13-15-31-24-50-24-20 0-38 9-50 24-13-15-31-24-50-24-20 0-38 9-50 24-13-15-31-24-50-24-20 0-38 9-50 24-13-15-31-24-50-24-20 0-38 9-50 24-13-15-31-24-50-24-20 0-38 9-50 24-13-15-31-24-50-24-13 0-25 4-36 11v-258z" horiz-adv-x="1000" />

<glyph glyph-name="age" unicode="&#xe813;" d="M856-51h-712c-11 0-20 9-20 21v452c0 5 3 8 7 8s8-3 8-8v-452c0-3 2-6 5-6h712c3 0 6 3 6 6v452c0 5 3 8 7 8s8-3 8-8v-452c0-12-10-21-21-21z m137 398c-2 0-4 1-5 2l-488 385-488-385c-3-3-8-2-10 1s-2 8 1 11l493 388c2 3 6 3 9 0l172-135v113 1c2 12 9 19 20 20h106c11 0 21-10 21-21v-229l173-137c4-3 4-7 2-11-2-2-4-3-6-3z m-301 255l117-93v218c0 3-3 6-6 6h-105c-2 0-5-1-6-7v-124z m-111-183c0 4-3 7-7 7h-148c-4 0-7-3-7-7s3-8 7-8h148c4 0 7 4 7 8z m-186-19c-14-1-26-14-26-29 0-16 14-29 30-29s29 13 29 29c0 15-11 28-25 29v60c0 2-2 4-4 4s-4-2-4-4v-60z m4-7c12 0 22-10 22-22s-10-22-22-22-22 10-22 22 10 22 22 22z m196 7c-14-1-26-14-26-29 0-16 14-29 30-29s29 13 29 29c0 15-11 28-25 29v60c0 2-2 4-4 4s-4-2-4-4v-60z m4-7c12 0 22-10 22-22s-10-22-22-22-22 10-22 22 10 22 22 22z m94-4c0 12-10 22-23 22h-45c-4 0-7 4-7 8s3 7 7 7h45c21 0 38-16 38-37v-290c0-21-17-38-38-38h-340c-21 0-37 17-37 38v290c0 21 16 37 37 37h41c5 0 8-3 8-7s-3-8-8-8h-41c-12 0-22-10-22-22v-61h385v61z m-385-290c0-13 10-23 22-23h340c13 0 23 10 23 23v214h-385v-214z m107 121h-52c-2 0-4 2-4 4s2 4 4 4h52v57c0 2 2 4 4 4s4-2 4-4v-57h70v57c0 2 1 4 3 4s4-2 4-4v-57h70v57c0 2 2 4 4 4s4-2 4-4v-57h60c2 0 3-2 3-4s-1-4-3-4h-60v-55h60c2 0 3-2 3-4s-1-3-3-3h-60v-48c0-2-2-4-4-4s-4 2-4 4v48h-70v-48c0-2-2-4-4-4s-3 2-3 4v48h-70v-48c0-2-2-4-4-4s-4 2-4 4v48h-52c-2 0-4 1-4 3s2 4 4 4h52v55z m78 0h-70v-55h70v55z m77 0h-70v-55h70v55z" horiz-adv-x="1000" />

<glyph glyph-name="location" unicode="&#xe814;" d="M429 493q0 59-42 101t-101 42-101-42-42-101 42-101 101-42 101 42 42 101z m142 0q0-61-18-100l-203-432q-9-18-27-29t-37-11-38 11-26 29l-204 432q-18 39-18 100 0 118 84 202t202 84 202-84 83-202z" horiz-adv-x="571.4" />

<glyph glyph-name="check-all" unicode="&#xe815;" d="M800-150h-600c-110 0-200 90-200 200v600c0 110 90 200 200 200h600c110 0 200-90 200-200v-600c0-110-90-200-200-200z m-600 950c-82 0-150-67-150-150v-600c0-83 68-150 150-150h600c83 0 150 67 150 150v600c0 83-67 150-150 150h-600z m650-375l-450-450-250 250v300l250-250 450 450v-300z" horiz-adv-x="1000" />

<glyph glyph-name="check-some" unicode="&#xe816;" d="M800-150h-600c-110 0-200 90-200 200v600c0 110 90 200 200 200h600c110 0 200-90 200-200v-600c0-110-90-200-200-200z m-600 950c-82 0-150-67-150-150v-600c0-83 68-150 150-150h600c83 0 150 67 150 150v600c0 83-67 150-150 150h-600z m600-700v500c0 28-22 50-50 50h-500c-27 0-50-22-50-50v-500c0-27 23-50 50-50h500c28 0 50 23 50 50z" horiz-adv-x="1000" />

<glyph glyph-name="check-none" unicode="&#xe817;" d="M800-150h-600c-110 0-200 90-200 200v600c0 110 90 200 200 200h600c110 0 200-90 200-200v-600c0-110-90-200-200-200z m-600 950c-82 0-150-67-150-150v-600c0-83 68-150 150-150h600c83 0 150 67 150 150v600c0 83-67 150-150 150h-600z" horiz-adv-x="1000" />

<glyph glyph-name="angle-double-left" unicode="&#xf100;" d="M350 82q0-7-6-13l-28-28q-5-5-12-5t-13 5l-260 261q-6 5-6 12t6 13l260 260q5 6 13 6t12-6l28-28q6-5 6-13t-6-12l-219-220 219-219q6-6 6-13z m214 0q0-7-5-13l-28-28q-6-5-13-5t-13 5l-260 261q-6 5-6 12t6 13l260 260q6 6 13 6t13-6l28-28q5-5 5-13t-5-12l-220-220 220-219q5-6 5-13z" horiz-adv-x="571.4" />

<glyph glyph-name="angle-double-right" unicode="&#xf101;" d="M332 314q0-7-5-12l-261-261q-5-5-12-5t-13 5l-28 28q-6 6-6 13t6 13l219 219-219 220q-6 5-6 12t6 13l28 28q5 6 13 6t12-6l261-260q5-5 5-13z m214 0q0-7-5-12l-260-261q-6-5-13-5t-13 5l-28 28q-5 6-5 13t5 13l219 219-219 220q-5 5-5 12t5 13l28 28q6 6 13 6t13-6l260-260q5-5 5-13z" horiz-adv-x="571.4" />

<glyph glyph-name="chart-area" unicode="&#xf1fe;" d="M1143-7v-72h-1143v858h71v-786h1072z m-214 571l142-500h-928v322l250 321 321-321z" horiz-adv-x="1142.9" />

<glyph glyph-name="map" unicode="&#xf279;" d="M286 850q7 0 12-5t6-13v-821q0-11-10-16l-268-143q-4-2-8-2-7 0-13 5t-5 13v821q0 11 10 16l267 143q4 2 9 2z m696 0q7 0 13-5t5-13v-821q0-11-9-16l-268-143q-4-2-9-2-7 0-12 5t-6 13v821q0 11 10 16l268 143q4 2 8 2z m-625 0q5 0 8-2l286-142q10-6 10-17v-821q0-7-6-13t-12-5q-5 0-8 2l-286 142q-10 6-10 17v821q0 7 6 13t12 5z" horiz-adv-x="1000" />
</font>
</defs>
</svg>
