<?xml version="1.0" encoding="utf-8"?>
<!-- Generator: Adobe Illustrator 18.0.0, SVG Export Plug-In . SVG Version: 6.00 Build 0)  -->
<!DOCTYPE svg PUBLIC "-//W3C//DTD SVG 1.1//EN" "http://www.w3.org/Graphics/SVG/1.1/DTD/svg11.dtd">
<svg version="1.1" id="Layer_1" xmlns="http://www.w3.org/2000/svg" xmlns:xlink="http://www.w3.org/1999/xlink" x="0px" y="0px"
	 viewBox="0 445.3 1024 133.4" enable-background="new 0 445.3 1024 133.4" xml:space="preserve">
<rect x="117.8" y="469.3" fill="#FFFFFF" width="45.4" height="17.8"/>
<rect x="29.8" y="469.3" fill="#FFFFFF" width="17.8" height="58.7"/>
<rect x="58.7" y="469.3" fill="#FFFFFF" width="17.8" height="86.3"/>
<rect y="469.3" fill="#FFFFFF" width="17.8" height="86.3"/>
<rect x="117.8" y="498.7" fill="#FFFFFF" width="17.8" height="56.9"/>
<rect x="88.5" y="469.3" fill="#FFFFFF" width="17.8" height="17.8"/>
<rect x="88.5" y="498.7" opacity="0.5" fill="#FFFFFF" width="17.8" height="56.9"/>
<g>
	<path fill="#FFFFFF" d="M246.3,469.3v52.9c0,4.9,0.4,9.3,1.8,12.4c1.3,3.6,2.7,6.2,4.9,8.4c2.2,2.2,4.9,4,8,4.9
		c3.1,0.9,6.7,1.3,10.7,1.3s7.6-0.4,10.7-1.3s5.8-2.7,8-4.9c2.2-2.2,4-4.9,4.9-8.4c1.3-3.6,1.8-7.6,1.8-12.4v-52.9h8V524
		c0,4.4-0.4,8.4-1.8,12.4c-1.3,4-3.1,7.6-5.8,10.2c-2.7,3.1-6.2,5.3-10.2,7.1c-4,1.8-9.3,2.7-15.1,2.7c-5.8,0-11.1-0.9-15.1-2.7
		c-4-1.8-7.6-4-10.2-7.1c-2.7-3.1-4.4-6.2-5.8-10.2c-1.3-4-1.8-8-1.8-12.4v-54.7H246.3z"/>
	<path fill="#FFFFFF" d="M326.8,492.9v14.7h0.4c1.8-4.9,4.9-8.9,8.9-11.6c4-2.7,8.9-4,14.7-3.6v7.6c-3.6,0-6.7,0.4-9.3,1.3
		c-2.7,0.9-5.3,2.7-7.1,4.4c-2.2,2.2-3.6,4.4-4.9,7.1c-1.3,2.7-1.8,5.8-1.8,8.9v32.9h-7.6v-61.8H326.8z"/>
	<path fill="#FFFFFF" d="M365.5,469.3v35.6h0.4c0.9-2.2,1.8-4,3.6-5.8c1.3-1.8,3.1-3.1,4.9-4.4c1.8-1.3,4-2.2,6.2-2.7
		c2.2-0.4,4.4-0.9,6.7-0.9c4.9,0,8.9,0.9,12.4,2.7c3.6,1.8,6.2,4,8.9,7.1c2.2,3.1,4,6.7,5.3,10.2c1.3,4,1.8,8,1.8,12.4
		c0,4.4-0.4,8.4-1.8,12.4c-1.3,4-2.7,7.6-5.3,10.2c-2.2,3.1-5.3,5.3-8.9,7.1c-4,2.2-8,3.1-12.9,3.1c-4.9,0-9.3-1.3-13.3-3.6
		c-4-2.2-6.7-5.8-8.4-9.8h-0.4v11.6h-7.1v-85.4H365.5z M406.4,514.2c-0.9-3.1-1.8-5.8-3.6-8.4c-1.8-2.7-3.6-4.4-6.2-6.2
		c-2.7-1.8-5.8-2.2-9.3-2.2c-4,0-7.6,0.9-10.2,2.2c-2.7,1.8-4.9,3.6-6.7,6.2c-1.8,2.7-3.1,5.3-3.6,8.4c-0.9,3.1-1.3,6.2-1.3,9.3
		c0,3.1,0.4,6.2,1.3,9.3c0.9,3.1,1.8,5.8,3.6,8.4s4,4.4,6.7,6.2s6.2,2.2,10.2,2.2c3.6,0,6.7-0.9,9.3-2.2c2.7-1.8,4.4-3.6,6.2-6.2
		s2.7-5.3,3.6-8.4c0.9-3.1,1.3-6.2,1.3-9.3C407.7,520.4,406.8,517.3,406.4,514.2z"/>
	<path fill="#FFFFFF" d="M428.2,502.7c1.3-2.7,3.1-4.9,5.3-6.7c2.2-1.8,4.9-3.1,7.6-3.6c3.1-0.9,6.2-1.3,9.8-1.3
		c2.7,0,5.3,0.4,8,0.9c2.7,0.4,5.3,1.3,7.1,3.1c1.8,1.8,4,3.6,5.3,6.2c1.3,2.7,2.2,5.8,2.2,10.2v32.9c0,3.1,1.3,4.4,4.4,4.4
		c0.9,0,1.8,0,2.2-0.4v6.2c-0.9,0-1.8,0.4-2.2,0.4c-0.9,0-1.3,0-2.7,0c-1.8,0-3.6-0.4-4.4-0.9c-1.3-0.4-2.2-1.3-2.7-2.2
		c-0.4-0.9-0.9-2.2-1.3-3.6c-0.4-1.3-0.4-2.7-0.4-4.4H466c-1.3,2.2-2.7,4-4,5.3c-1.3,1.8-3.1,2.7-4.9,4c-1.8,0.9-3.6,1.8-5.8,2.2
		c-2.2,0.4-4.9,0.9-8,0.9c-2.7,0-5.8-0.4-8-0.9c-2.2-0.4-4.9-1.8-6.7-3.1c-1.8-1.3-3.6-3.6-4.4-5.8c-0.9-2.2-1.8-4.9-1.8-8
		c0-4.4,0.9-7.6,2.7-10.2c1.8-2.2,4.4-4.4,7.6-5.8c3.1-1.3,6.7-2.2,10.7-2.7c4-0.4,8-0.9,12-1.3c1.8,0,3.1-0.4,4-0.4
		c0.9,0,2.2-0.4,3.1-1.3c0.9-0.4,1.3-1.3,1.8-2.7c0.4-0.9,0.4-2.2,0.4-4c0-2.7-0.4-4.4-1.3-6.2c-0.9-1.8-2.2-3.1-3.6-4
		c-1.3-0.9-3.1-1.8-5.3-1.8c-1.8-0.4-4-0.4-6.2-0.4c-4.9,0-8.9,1.3-11.6,3.6c-3.1,2.2-4.4,5.8-4.9,11.1h-7.6
		C426,508.4,426.9,505.3,428.2,502.7z M466,520.9c-0.4,0.9-1.3,1.3-2.7,1.8c-1.3,0.4-2.7,0.9-3.6,0.9c-3.1,0.4-6.7,0.9-9.8,1.3
		s-6.7,0.9-9.3,1.8s-4.9,2.2-7.1,4c-1.8,1.8-2.7,4-2.7,7.1c0,1.8,0.4,3.6,1.3,4.9c0.9,1.3,1.8,2.7,3.1,4s2.7,1.8,4.4,2.7
		c1.8,0.4,3.6,0.9,5.3,0.9c2.7,0,5.8-0.4,8.4-1.3s4.9-2.2,7.1-4c1.8-1.8,3.6-3.6,4.9-6.2c1.3-2.2,1.8-5.3,1.8-8L466,520.9L466,520.9
		z"/>
	<path fill="#FFFFFF" d="M496.2,492.9v10.7h0.4c1.3-3.6,4-6.7,7.6-8.9c3.6-2.2,7.6-3.6,12-3.6c4.4,0,8,0.4,10.7,1.8
		c2.7,1.3,5.3,2.7,7.1,4.9c1.8,2.2,3.1,4.4,3.6,7.6c0.4,3.1,0.9,6.2,0.9,9.8v40h-7.6v-38.7c0-2.7-0.4-4.9-0.9-7.6s-1.3-4.4-2.7-5.8
		c-1.3-1.8-2.7-3.1-4.9-4c-2.2-0.9-4.4-1.3-7.6-1.3c-3.1,0-5.8,0.4-8,1.8c-2.2,0.9-4.4,2.7-6.2,4.4c-1.8,1.8-3.1,4-4,6.7
		c-0.9,2.7-1.3,5.3-1.3,8.4v36h-7.6v-62.2H496.2z"/>
	<path fill="#FFFFFF" d="M600.7,469.3c4,0,7.1,0.4,10.2,1.8s5.8,3.1,8,4.9c2.2,2.2,4,4.4,4.9,7.6c1.3,2.7,1.8,5.8,1.8,9.3
		c0,4.9-0.9,9.3-3.1,12.9s-5.8,6.7-10.2,8.4v0.4c2.2,0.4,4.4,1.8,5.8,3.1c1.3,1.3,2.7,2.7,3.6,4.9c0.9,1.8,1.8,4,2.2,5.8
		c0.4,2.2,0.9,4.4,0.9,6.7c0,1.3,0,3.1,0.4,4.9c0,1.8,0,3.6,0.4,5.8c0,1.8,0.4,3.6,0.9,5.3s0.9,3.1,1.8,4.4h-18.7
		c-0.9-2.7-1.8-5.8-1.8-9.8c-0.4-3.6-0.4-7.6-0.9-10.7c-0.4-4.4-2.2-7.6-4-9.8c-2.2-2.2-5.3-3.1-10.2-3.1H574v33.3h-18.7v-86.3
		H600.7z M594,508c4.4,0,7.6-0.9,9.8-2.7c2.2-1.8,3.1-4.9,3.1-9.3c0-4-0.9-7.1-3.1-8.9c-2.2-1.8-5.3-2.7-9.8-2.7h-20.5v24H594V508z"
		/>
	<path fill="#FFFFFF" d="M659.8,469.3v85.8h-18.7v-85.8H659.8z"/>
	<path fill="#FFFFFF" d="M691,533.8c0.9,2.2,2.2,3.6,4,4.9s3.6,2.2,6.2,2.7c2.2,0.4,4.9,0.9,7.1,0.9c1.8,0,3.6,0,5.3-0.4
		c1.8-0.4,3.6-0.9,5.3-1.8c1.8-0.9,3.1-1.8,4-3.1c1.3-1.3,1.8-3.1,1.8-5.3c0-2.2-0.9-4-2.2-5.8s-3.6-2.7-5.8-3.6
		c-2.2-0.9-5.3-1.8-8-2.7c-3.1-0.9-6.2-1.3-9.3-2.2c-3.1-0.9-6.2-1.8-9.3-3.1c-3.1-1.3-5.8-2.7-8-4.4c-2.2-1.8-4.4-4-5.8-7.1
		c-1.3-2.7-2.2-6.2-2.2-10.2c0-4.4,0.9-8,2.7-11.6c1.8-3.1,4.4-5.8,7.6-8c3.1-2.2,6.7-3.6,10.2-4.9c4-0.9,7.6-1.8,11.6-1.8
		c4.4,0,8.9,0.4,12.9,1.3s8,2.7,11.1,4.9c3.1,2.2,5.8,4.9,7.6,8.4c1.8,3.6,2.7,7.6,2.7,12.4h-18.2c0-2.7-0.9-4.9-1.8-6.2
		c-0.9-1.8-2.2-3.1-3.6-4c-1.3-0.9-3.1-1.8-5.3-2.2c-1.8-0.4-4-0.4-6.2-0.4c-1.3,0-3.1,0-4.4,0.4c-1.3,0.4-3.1,0.9-4,1.8
		c-0.9,0.9-2.2,1.8-3.1,3.1s-1.3,2.7-1.3,4.4c0,1.8,0.4,3.1,0.9,4c0.4,0.9,1.8,2.2,4,2.7c1.8,0.9,4.4,1.8,8,2.7
		c3.1,0.9,7.6,2.2,12.9,3.6c1.8,0.4,4,0.9,6.7,1.8s5.8,2.2,8.4,4c2.7,1.8,5.3,4.4,7.1,7.6c2.2,3.1,3.1,7.1,3.1,12
		c0,4-0.9,7.6-2.2,11.1c-1.3,3.6-4,6.2-6.7,8.9c-3.1,2.2-6.7,4.4-11.1,5.8c-4.4,1.3-9.8,2.2-15.6,2.2c-4.9,0-9.3-0.4-13.8-1.8
		s-8.4-3.1-11.6-5.3c-3.6-2.7-6.2-5.8-8-9.3c-2.2-4-3.1-8.4-2.7-13.8h18.2C689.6,529.3,690.1,531.6,691,533.8z"/>
	<path fill="#FFFFFF" d="M773.2,469.3v35.6l33.3-35.6h23.6l-33.3,33.8l36.9,52h-23.6l-25.8-38.7l-10.7,11.1v27.6H755v-85.8H773.2z"
		/>
	<path fill="#FFFFFF" d="M849.7,469.3V548h48v7.1h-56v-85.8H849.7z"/>
	<path fill="#FFFFFF" d="M906.2,502.7c1.3-2.7,3.1-4.9,5.3-6.7c2.2-1.8,4.9-3.1,7.6-3.6c3.1-0.9,6.2-1.3,9.8-1.3
		c2.7,0,5.3,0.4,8,0.9s5.3,1.3,7.1,3.1c1.8,1.8,4,3.6,5.3,6.2c1.3,2.7,2.2,5.8,2.2,10.2v32.9c0,3.1,1.3,4.4,4.4,4.4
		c0.9,0,1.8,0,2.2-0.4v6.2c-0.9,0-1.8,0.4-2.2,0.4c-0.9,0-1.3,0-2.7,0c-1.8,0-3.6-0.4-4.4-0.9c-1.3-0.4-2.2-1.3-2.7-2.2
		s-0.9-2.2-1.3-3.6s-0.4-2.7-0.4-4.4H944c-1.3,2.2-2.7,4-4,5.3c-1.3,1.8-3.1,2.7-4.9,4c-1.8,0.9-3.6,1.8-5.8,2.2s-4.9,0.9-8,0.9
		c-2.7,0-5.8-0.4-8-0.9c-2.7-0.9-4.9-1.8-6.7-3.1c-1.8-1.3-3.6-3.6-4.4-5.8c-0.9-2.2-1.8-4.9-1.8-8c0-4.4,0.9-7.6,2.7-10.2
		c1.8-2.2,4.4-4.4,7.6-5.8c3.1-1.3,6.7-2.2,10.7-2.7s8-0.9,12-1.3c1.8,0,3.1-0.4,4-0.4c1.3-0.4,2.2-0.4,3.1-1.3
		c0.9-0.9,1.3-1.3,1.8-2.7c0.4-0.9,0.4-2.2,0.4-4c0-2.7-0.4-4.4-1.3-6.2c-0.9-1.8-2.2-3.1-3.6-4c-1.3-0.9-3.1-1.8-5.3-1.8
		c-1.8-0.4-4-0.4-6.2-0.4c-4.9,0-8.9,1.3-11.6,3.6c-3.1,2.2-4.4,5.8-4.9,11.1h-7.6C903.9,508.4,904.8,505.3,906.2,502.7z M944,520.9
		c-0.4,0.9-1.3,1.3-2.7,1.8c-1.3,0.4-2.7,0.9-3.6,0.9c-3.1,0.4-6.7,0.9-9.8,1.3c-3.6,0.4-6.7,0.9-9.3,1.8s-4.9,2.2-7.1,4
		c-1.8,1.8-2.7,4-2.7,7.1c0,1.8,0.4,3.6,1.3,4.9c0.9,1.3,1.8,2.7,3.1,4s2.7,1.8,4.4,2.7c1.8,0.9,3.6,0.9,5.3,0.9
		c2.7,0,5.8-0.4,8.4-1.3c2.7-0.9,4.9-2.2,7.1-4c1.8-1.8,3.6-3.6,4.9-6.2c1.3-2.2,1.8-5.3,1.8-8L944,520.9L944,520.9z"/>
	<path fill="#FFFFFF" d="M974.6,469.3v35.6h0.4c0.9-2.2,1.8-4,3.6-5.8c1.8-1.8,3.1-3.1,4.9-4.4c1.8-1.3,4-2.2,6.2-2.7
		c2.2-0.4,4.4-0.9,6.7-0.9c4.9,0,8.9,0.9,12.4,2.7c3.6,1.8,6.2,4,8.9,7.1c2.2,3.1,4,6.7,5.3,10.2c1.3,4,1.8,8,1.8,12.4
		c0,4.4-0.4,8.4-1.8,12.4c-1.3,4-2.7,7.6-5.3,10.2c-2.2,3.1-5.3,5.3-8.9,7.1c-3.6,1.8-7.6,2.7-12.4,2.7c-4.9,0-9.3-1.3-13.3-3.6
		c-4-2.2-6.7-5.8-8.4-9.8h-0.9v11.6h-7.1v-84.9H974.6z M1015.1,514.2c-0.9-3.1-1.8-5.8-3.6-8.4c-1.8-2.7-3.6-4.4-6.2-6.2
		c-2.7-1.8-5.8-2.2-9.3-2.2c-4,0-7.6,0.9-10.2,2.2c-2.7,1.8-4.9,3.6-6.7,6.2c-1.8,2.7-3.1,5.3-3.6,8.4c-0.4,3.1-1.3,6.2-1.3,9.3
		c0,3.1,0.4,6.2,1.3,9.3c0.9,3.1,2.2,5.8,3.6,8.4c1.8,2.7,4,4.4,6.7,6.2s6.2,2.2,10.2,2.2c3.6,0,6.7-0.9,9.3-2.2
		c2.7-1.8,4.4-3.6,6.2-6.2s2.7-5.3,3.6-8.4c0.9-3.1,1.3-6.2,1.3-9.3C1016.4,520.4,1016,517.3,1015.1,514.2z"/>
</g>
<g>
	<path fill="#31AADE" d="M205.9,445.3v133.4h-7.1V445.3H205.9z"/>
</g>
</svg>
